<svg width="150" height="24" viewBox="0 0 150 24" fill="none" xmlns="http://www.w3.org/2000/svg">
<path d="M7.45648 8.66194C7.53256 9.3832 7.77601 10.4808 8.12598 11.6097C8.44551 12.6759 8.39987 13.0209 7.6695 14.5261L7 15.9216L8.23249 15.9686C8.96286 16 9.60192 15.9373 9.78452 15.8432C9.95189 15.7334 10.4236 15.2474 10.8344 14.73L11.58 13.8049H18.9749L19.5531 14.5261C20.8161 16.1254 20.6335 16.0157 22.1551 15.9686L23.5397 15.9216L22.8398 14.432C22.0486 12.7386 22.0333 13.1777 23.0832 9.00689C23.3419 8.0034 23.3419 8.0034 22.2311 8.0034H21.1965L20.74 8.67762C20.4965 9.03825 20.1161 9.64976 19.9183 10.0417C19.7205 10.4337 19.3706 11.0923 19.1423 11.5313L18.7315 12.3153H11.793L11.5191 11.8449C11.367 11.5783 11.0322 10.9355 10.7736 10.3867C10.4997 9.85359 10.0888 9.14801 9.84538 8.8501C9.60192 8.5365 9.44976 8.22291 9.49541 8.14451C9.54106 8.06612 9.08458 8.0034 8.49116 8.0034H7.39561L7.45648 8.66194ZM28.1197 8.14451C28.1197 8.23859 27.9219 8.59922 27.6785 8.97553C27.1002 9.85359 25.6852 12.7073 25.6852 12.9895C25.6852 13.2404 26.522 14.4007 27.3893 15.3415L27.998 16H41.9358L42.6661 15.1063C43.7921 13.7578 44.0964 13.3031 44.0964 12.9582C44.0964 12.4721 42.4988 9.30481 41.951 8.6933C41.7988 8.52083 41.6619 8.28563 41.6619 8.19155C41.6619 8.06612 41.3119 8.0034 40.5816 8.0034H39.486L39.6077 8.58354C39.8664 9.97903 40.0947 10.9825 40.4751 12.4094C40.612 12.8954 40.5663 13.0679 40.1707 13.8205L39.7295 14.6672L35.043 14.7143C31.8476 14.73 30.2956 14.6986 30.1586 14.5732C29.8391 14.2909 29.337 13.1933 29.337 12.7386C29.337 12.5034 29.4283 12.0017 29.55 11.6097C29.9 10.4808 30.1434 9.3832 30.2195 8.66194L30.2804 8.0034H29.2C28.6066 8.0034 28.1197 8.06612 28.1197 8.14451ZM46.5614 8.74034L46.6071 9.49296L52.6174 9.54C55.9192 9.55568 58.7189 9.60272 58.8255 9.64976C59.0385 9.72816 58.8102 10.0574 57.5017 11.6097L56.9083 12.3153L51.7501 12.3937C46.9266 12.4721 46.6071 12.4878 46.5614 12.7543C46.531 12.9111 46.5462 13.209 46.5919 13.4285L46.6831 13.8049H57.0908L58.0799 14.4948C60.1492 15.9059 60.3927 16 61.9447 16H63.3446L62.6599 15.3258C62.2795 14.9651 61.61 14.3536 61.1687 13.9773C60.7427 13.601 60.3775 13.1777 60.3775 13.0366C60.3775 12.8954 60.6514 12.2212 61.0013 11.5313C61.3513 10.8414 61.823 9.88495 62.0665 9.39888C62.8273 7.86228 63.588 8.0034 54.5041 8.0034H46.5158L46.5614 8.74034ZM67.2247 8.31699C67.2247 8.48947 67.1486 8.63058 67.0725 8.63058C66.9812 8.63058 66.8443 8.78738 66.753 8.97553C66.6769 9.17937 66.3726 9.75951 66.0835 10.2769C65.1705 11.9703 64.8966 12.5975 64.8966 13.0366C64.8966 13.3345 65.1857 13.8205 65.9465 14.7143L66.9964 15.9843H68.4115C69.7049 16 69.8114 15.9843 69.6896 15.7178C69.1114 14.5104 68.9288 14.0557 68.9897 13.9303C69.0354 13.8676 71.3177 13.8049 74.087 13.8049C79.7778 13.8049 79.443 13.7108 78.7127 15.1219C78.4997 15.5296 78.3323 15.8902 78.3323 15.9373C78.3323 15.9686 78.9409 16 79.6865 16H81.0559L82.1211 14.7143C82.8971 13.7892 83.2014 13.2874 83.2014 12.9738C83.2014 12.4407 81.5428 9.13233 80.9646 8.50515C80.8581 8.39539 80.7668 8.22291 80.7668 8.14451C80.7668 8.06612 78.0584 8.0034 73.9957 8.0034C67.3312 8.0034 67.2247 8.0034 67.2247 8.31699ZM78.7583 9.6968C78.9561 9.83791 79.3974 11.2648 79.443 11.9233L79.4735 12.3153H68.6702L68.7006 11.9233C68.7463 11.2648 69.1875 9.83791 69.3853 9.6968C69.644 9.54 78.4997 9.54 78.7583 9.6968ZM89.1356 8.23859C89.1356 8.37971 88.9682 8.64626 88.7704 8.83442C88.0553 9.54 85.5903 12.4878 85.4838 12.7857C85.4229 12.9582 85.4077 13.1933 85.4381 13.3031C85.5142 13.4756 88.1161 15.3258 88.9682 15.7962C89.2421 15.953 90.7181 16 95.5263 15.9686L101.734 15.9216L101.476 15.3728L101.232 14.824L96.0588 14.7456C90.3224 14.6516 90.642 14.7143 89.5616 13.5383L89.1356 13.0836L89.8355 11.6724C90.9919 9.36752 90.3529 9.58704 96.1197 9.54L101.065 9.49296L101.415 8.95985C102.069 7.95636 102.389 8.0034 95.4502 8.0034C89.8507 8.0034 89.1356 8.03476 89.1356 8.23859ZM106.33 8.17587C106.33 8.26995 106.162 8.56786 105.964 8.83442C105.569 9.3832 104.854 10.6846 104.169 12.1271L103.728 13.0366L104.321 13.8519C104.641 14.3066 105.173 14.9651 105.493 15.3258L106.071 16H107.425C108.156 16 108.764 15.9373 108.764 15.8589C108.764 15.7962 108.566 15.3415 108.323 14.8711C108.064 14.385 107.912 13.9616 107.958 13.8989C108.14 13.7108 118.198 13.7892 118.198 13.9773C118.198 14.0714 118.031 14.4948 117.818 14.9338C117.605 15.3571 117.437 15.7805 117.437 15.8589C117.437 15.9373 118.031 16 118.761 16H120.07L120.587 15.4042C121.469 14.4164 122.306 13.2404 122.306 12.9895C122.306 12.6289 120.861 9.77519 120.222 8.83442C120.024 8.56786 119.872 8.26995 119.872 8.17587C119.872 8.05044 117.909 8.0034 113.101 8.0034C108.399 8.0034 106.33 8.05044 106.33 8.17587ZM118.046 10.2299C118.198 10.6062 118.35 11.2177 118.381 11.6097L118.426 12.3153H107.775L107.821 11.6254C107.836 11.2334 107.988 10.6219 108.156 10.2456L108.445 9.57136H117.757L118.046 10.2299ZM121.089 8.14451C121.089 8.22291 121.333 8.78738 121.637 9.39888C122.032 10.1985 122.261 10.5121 122.474 10.5121C122.793 10.5121 124.741 8.52083 124.741 8.19155C124.741 8.05044 124.269 8.0034 122.915 8.0034C121.911 8.0034 121.089 8.06612 121.089 8.14451ZM126.719 8.17587C126.719 8.28563 126.399 8.75602 126.004 9.22641C124.665 10.8414 124.558 11.0139 124.665 11.6097C124.726 11.9076 124.832 12.2369 124.908 12.331C124.984 12.425 125.319 13.0522 125.669 13.7421C126.004 14.4164 126.46 15.216 126.673 15.4826C127.023 15.9843 127.069 16 128.195 16C129.23 16 129.321 15.9686 129.23 15.7334C129.169 15.5767 129.047 15.169 128.971 14.824C128.895 14.4791 128.712 13.8676 128.591 13.4599C128.225 12.2526 128.256 10.8571 128.682 10.1515L129.032 9.57136H133.688C136.259 9.57136 138.435 9.63408 138.511 9.6968C138.876 9.94767 139.348 11.0296 139.348 11.5783C139.348 11.8919 139.257 12.4721 139.135 12.8641C138.831 13.8362 138.572 14.8867 138.481 15.4826L138.405 16H139.455C140.763 16 140.809 15.953 141.798 13.9617C141.996 13.5697 142.33 12.9111 142.574 12.5034C142.802 12.0958 143 11.594 143 11.3902C143 11.0923 141.798 9.43024 140.915 8.50515C140.809 8.39539 140.718 8.22291 140.718 8.14451C140.718 8.06612 137.918 8.0034 133.718 8.0034C128.575 8.0034 126.719 8.05044 126.719 8.17587Z" fill="black" style="fill:black;fill-opacity:1;"/>
</svg>
